<svg width="9" height="17" viewBox="0 0 9 17" fill="none" xmlns="http://www.w3.org/2000/svg">
<path d="M4.25 17C3.07417 17 2.07187 16.5856 1.24312 15.7569C0.414375 14.9281 0 13.9258 0 12.75C0 12.07 0.14875 11.436 0.44625 10.8481C0.74375 10.2602 1.16167 9.76083 1.7 9.35V2.55C1.7 1.84167 1.94792 1.23958 2.44375 0.74375C2.93958 0.247917 3.54167 0 4.25 0C4.95833 0 5.56041 0.247917 6.05625 0.74375C6.55208 1.23958 6.8 1.84167 6.8 2.55V9.35C7.33833 9.76083 7.75625 10.2602 8.05375 10.8481C8.35125 11.436 8.5 12.07 8.5 12.75C8.5 13.9258 8.08562 14.9281 7.25687 15.7569C6.42812 16.5856 5.42583 17 4.25 17ZM3.4 7.65H5.1V6.8H4.25V5.95H5.1V4.25H4.25V3.4H5.1V2.55C5.1 2.30917 5.01854 2.10729 4.85562 1.94437C4.69271 1.78146 4.49083 1.7 4.25 1.7C4.00917 1.7 3.80729 1.78146 3.64437 1.94437C3.48146 2.10729 3.4 2.30917 3.4 2.55V7.65Z" fill="black"/>
</svg>
